<svg xmlns="http://www.w3.org/2000/svg">
  <symbol id="mastodon" viewBox="0 0 24 24">
    <path fill="currentColor" d="M20.94 14c-.28 1.41-2.44 2.96-4.97 3.26c-1.31.15-2.6.3-3.97.24c-2.25-.11-4-.54-4-.54v.62c.32 2.22 2.22 2.35 4.03 2.42c1.82.05 3.44-.46 3.44-.46l.08 1.65s-1.28.68-3.55.81c-1.25.07-2.81-.03-4.62-.5c-3.92-1.05-4.6-5.24-4.7-9.5l-.01-3.43c0-4.34 2.83-5.61 2.83-5.61C6.95 2.3 9.41 2 11.97 2h.06c2.56 0 5.02.3 6.47.96c0 0 2.83 1.27 2.83 5.61c0 0 .04 3.21-.39 5.43M18 8.91c0-1.08-.3-1.91-.85-2.56c-.56-.63-1.3-.96-2.23-.96c-1.06 0-1.87.41-2.42 1.23l-.5.88l-.5-.88c-.56-.82-1.36-1.23-2.43-1.23c-.92 0-1.66.33-2.23.96C6.29 7 6 7.83 6 8.91v5.26h2.1V9.06c0-1.06.45-1.62 1.36-1.62c1 0 1.5.65 1.5 1.93v2.79h2.07V9.37c0-1.28.5-1.93 1.51-1.93c.9 0 1.35.56 1.35 1.62v5.11H18z"/>
  </symbol>
  <symbol id="github" viewBox="0 0 24 24">
    <path fill="currentColor" d="M12 2A10 10 0 0 0 2 12c0 4.42 2.87 8.17 6.84 9.5c.5.08.66-.23.66-.5v-1.69c-2.77.6-3.36-1.34-3.36-1.34c-.46-1.16-1.11-1.47-1.11-1.47c-.91-.62.07-.6.07-.6c1 .07 1.53 1.03 1.53 1.03c.87 1.52 2.34 1.07 2.91.83c.09-.65.35-1.09.63-1.34c-2.22-.25-4.55-1.11-4.55-4.92c0-1.11.38-2 1.03-2.71c-.1-.25-.45-1.29.1-2.64c0 0 .84-.27 2.75 1.02c.79-.22 1.65-.33 2.5-.33c.85 0 1.71.11 2.5.33c1.91-1.29 2.75-1.02 2.75-1.02c.55 1.35.2 2.39.1 2.64c.65.71 1.03 1.6 1.03 2.71c0 3.82-2.34 4.66-4.57 4.91c.36.31.69.92.69 1.85V21c0 .27.16.59.67.5C19.14 20.16 22 16.42 22 12A10 10 0 0 0 12 2"/>
  </symbol>
  <symbol id="website" viewBox="0 0 512 512">
    <path fill="currentColor" d="M326.612 185.391c59.747 59.809 58.927 155.698.36 214.59c-.11.12-.24.25-.36.37l-67.2 67.2c-59.27 59.27-155.699 59.262-214.96 0c-59.27-59.26-59.27-155.7 0-214.96l37.106-37.106c9.84-9.84 26.786-3.3 27.294 10.606c.648 17.722 3.826 35.527 9.69 52.721c1.986 5.822.567 12.262-3.783 16.612l-13.087 13.087c-28.026 28.026-28.905 73.66-1.155 101.96c28.024 28.579 74.086 28.749 102.325.51l67.2-67.19c28.191-28.191 28.073-73.757 0-101.83c-3.701-3.694-7.429-6.564-10.341-8.569a16.037 16.037 0 0 1-6.947-12.606c-.396-10.567 3.348-21.456 11.698-29.806l21.054-21.055c5.521-5.521 14.182-6.199 20.584-1.731a152.482 152.482 0 0 1 20.522 17.197M467.547 44.449c-59.261-59.262-155.69-59.27-214.96 0l-67.2 67.2c-.12.12-.25.25-.36.37c-58.566 58.892-59.387 154.781.36 214.59a152.454 152.454 0 0 0 20.521 17.196c6.402 4.468 15.064 3.789 20.584-1.731l21.054-21.055c8.35-8.35 12.094-19.239 11.698-29.806a16.037 16.037 0 0 0-6.947-12.606c-2.912-2.005-6.64-4.875-10.341-8.569c-28.073-28.073-28.191-73.639 0-101.83l67.2-67.19c28.239-28.239 74.3-28.069 102.325.51c27.75 28.3 26.872 73.934-1.155 101.96l-13.087 13.087c-4.35 4.35-5.769 10.79-3.783 16.612c5.864 17.194 9.042 34.999 9.69 52.721c.509 13.906 17.454 20.446 27.294 10.606l37.106-37.106c59.271-59.259 59.271-155.699.001-214.959"/>
  </symbol>
  <symbol id="twitter" viewBox="0 0 24 24">
    <path fill="currentColor" d="M22.46 6c-.77.35-1.6.58-2.46.69c.88-.53 1.56-1.37 1.88-2.38c-.83.5-1.75.85-2.72 1.05C18.37 4.5 17.26 4 16 4c-2.35 0-4.27 1.92-4.27 4.29c0 .34.04.67.11.98C8.28 9.09 5.11 7.38 3 4.79c-.37.63-.58 1.37-.58 2.15c0 1.49.75 2.81 1.91 3.56c-.71 0-1.37-.2-1.95-.5v.03c0 2.08 1.48 3.82 3.44 4.21a4.22 4.22 0 0 1-1.93.07a4.28 4.28 0 0 0 4 2.98a8.521 8.521 0 0 1-5.33 1.84c-.34 0-.68-.02-1.02-.06C3.44 20.29 5.7 21 8.12 21C16 21 20.33 14.46 20.33 8.79c0-.19 0-.37-.01-.56c.84-.6 1.56-1.36 2.14-2.23"/>
  </symbol>
</svg>